# xmcd
#
# Track frame offsets: 
#        150
#        18575
#        32030
#        49963
#        66527
#        85260
#        101194
#        113980
#        127864
#        135271
#        153141
#        167609
#        179123
#
# Disc length: 2599 seconds
#
# Revision: 0
# Processed by: cddbd v1.5.2PL0 Copyright (c) Steve Scherf et al.
# Submitted via: ExactAudioCopy v1.1
#
DISCID=b00a250d
DTITLE=Johnny Reid - A Christmas Give to You
DYEAR=1900
DGENRE=Country
TTITLE0=I Heard the Bells on Christmas Day
TTITLE1=Angels We Have Heard on High
TTITLE2=O Holy Night
TTITLE3=Do You Hear what I Hear?
TTITLE4=Mary Did You Know
TTITLE5=Winter Star
TTITLE6=Hark the Harold Angels Sing - O Come All Ye Faithfull
TTITLE7=Away in a Manger
TTITLE8=Lo How a Rose Ere Blooming
TTITLE9=Little Drummer Boy
TTITLE10=Silent Night - Sainte Nuit
TTITLE11=Have Yourself a Merry Little Christmas
TTITLE12=White Christmas
EXTD=
EXTT0=
EXTT1=
EXTT2=
EXTT3=
EXTT4=
EXTT5=
EXTT6=
EXTT7=
EXTT8=
EXTT9=
EXTT10=
EXTT11=
EXTT12=
PLAYORDER=
